<svg width="233" height="58" viewBox="0 0 233 58" fill="none" xmlns="http://www.w3.org/2000/svg">
<path d="M167.149 11.1172H166.745V49.5037H167.149V11.1172Z" fill="#424143"/>
<path d="M223.453 42.0858L223.354 41.982L216.097 34.3778V41.4686V41.5283H216.04H214.681H214.623V41.4686V30.8771V30.7314L214.722 30.8351L221.979 38.4714V31.2845V31.2248H222.036H223.395H223.453V31.2845V41.9401V42.0858ZM204.986 41.5283V39.9617L208.99 30.8694L209.043 30.7524L209.095 30.8694L213.792 41.4455L213.829 41.5283H213.74H212.316H212.28L212.264 41.4941L209.038 34.2155L205.851 41.493L205.835 41.5283H205.798H204.986ZM204.986 32.3918L205.623 31.3143L205.676 31.2248H205.574H204.986V32.3918ZM204.986 31.2259V32.3929L202.367 36.8176V41.4698V41.5294H202.309H200.952H200.895V41.4698V36.8342L197.86 31.6686V31.227H199.206H199.238L199.255 31.2557L201.651 35.2731L204.018 31.2557L204.035 31.227H204.068H204.986V31.2259ZM204.986 39.9617L204.333 41.4455L204.297 41.5283H204.385H204.987V39.9617H204.986ZM197.86 41.5283H198.063H198.121V41.4686V40.0942V40.0346H198.063H197.86V41.5283ZM197.86 31.2259V31.6675L197.653 31.3154L197.601 31.2259H197.703H197.86ZM197.86 40.0346H194.879V31.2845V31.2248H194.821H193.48H193.422V31.2845V41.4686V41.5283H193.48H197.86V40.0346ZM192.586 41.5283H192.496H191.073H191.036L191.02 41.4941L187.795 34.2155L184.608 41.493L184.592 41.5283H184.555H183.141H183.051L183.088 41.4455L187.746 30.8694L187.798 30.7524L187.85 30.8694L192.547 41.4455L192.586 41.5283ZM182.551 41.5283H182.422H180.692H180.668L180.649 41.5096L176.334 36.652V41.4686V41.5283H176.278H174.919H174.86V41.4686V31.2845V31.2248H174.919H176.278H176.334V31.2845V35.2831L180.457 31.2414L180.474 31.2248H180.497H182.39H182.534L182.429 31.3275L177.662 36.0128L182.464 41.4289L182.551 41.5283Z" fill="#D71921"/>
<path d="M202.53 26.3394L203.186 26.0435C203.205 26.1738 203.22 26.3063 203.236 26.4409C203.236 26.4409 202.942 26.3956 202.53 26.3394Z" fill="#FFDE00"/>
<path d="M203.217 26.2771L202.946 26.3986C202.741 26.3688 202.439 26.3258 202.108 26.2838L203.153 25.8135C203.178 25.9659 203.199 26.1215 203.217 26.2771Z" fill="#FFDE00"/>
<path d="M203.187 26.0438L202.531 26.3397C202.278 26.3055 201.98 26.2657 201.679 26.2293L203.114 25.5845C203.142 25.7347 203.166 25.8892 203.187 26.0438Z" fill="#FFDE00"/>
<path d="M203.153 25.8127L202.109 26.283C201.827 26.2466 201.525 26.2102 201.239 26.1803L203.069 25.3579C203.102 25.5069 203.127 25.6593 203.153 25.8127Z" fill="#FFDE00"/>
<path d="M203.113 25.5842L201.678 26.2289C201.367 26.1925 201.052 26.1594 200.781 26.1396L203.02 25.1338C203.056 25.2807 203.087 25.4319 203.113 25.5842Z" fill="#FFDD00"/>
<path d="M203.071 25.3584L201.24 26.1809C200.887 26.1444 200.559 26.1201 200.331 26.1201H200.279L202.97 24.9102C203.006 25.0581 203.04 25.206 203.071 25.3584Z" fill="#FFDA00"/>
<path d="M203.022 25.1339L200.782 26.1396C200.611 26.1264 200.455 26.1197 200.33 26.1197C200.221 26.1197 200.018 26.1186 199.749 26.1109L202.911 24.689C202.949 24.8358 202.987 24.9826 203.022 25.1339Z" fill="#FFDA00"/>
<path d="M202.97 24.911L200.279 26.121C200.091 26.1199 199.721 26.1176 199.246 26.0922L202.849 24.4727C202.891 24.6151 202.932 24.762 202.97 24.911Z" fill="#FFD900"/>
<path d="M202.911 24.6904L199.747 26.1123C199.479 26.1046 199.144 26.0891 198.768 26.0593L202.782 24.2554C202.828 24.3978 202.87 24.5436 202.911 24.6904Z" fill="#FFD700"/>
<path d="M202.848 24.4715L199.245 26.091C198.965 26.0756 198.649 26.0524 198.313 26.0171L202.71 24.041C202.76 24.1823 202.806 24.3258 202.848 24.4715Z" fill="#FFD700"/>
<path d="M202.782 24.2548L198.768 26.0587C198.49 26.0366 198.191 26.0068 197.878 25.966L202.633 23.8286C202.686 23.9677 202.734 24.1101 202.782 24.2548Z" fill="#FFD600"/>
<path d="M202.709 24.0408L198.312 26.017C198.041 25.9894 197.755 25.9519 197.465 25.9055L202.553 23.6191C202.608 23.7571 202.66 23.8974 202.709 24.0408Z" fill="#FFD600"/>
<path d="M202.633 23.8284L197.878 25.9668C197.615 25.9326 197.344 25.8896 197.071 25.8376L202.469 23.4111C202.526 23.548 202.581 23.6882 202.633 23.8284Z" fill="#FFD600"/>
<path d="M202.553 23.6187L197.465 25.9051C197.211 25.8642 196.951 25.8168 196.694 25.7582L202.378 23.2036C202.44 23.3394 202.497 23.4774 202.553 23.6187Z" fill="#FFD300"/>
<path d="M202.469 23.4122L197.071 25.8376C196.826 25.7912 196.581 25.7371 196.337 25.6742L202.286 23.0015C202.349 23.1351 202.41 23.272 202.469 23.4122Z" fill="#FFD300"/>
<path d="M202.38 23.2043L196.696 25.7589C196.461 25.707 196.227 25.6463 195.999 25.5779L202.188 22.7969C202.255 22.9305 202.318 23.0663 202.38 23.2043Z" fill="#FFD300"/>
<path d="M202.285 23.0001L196.337 25.6729C196.115 25.6143 195.894 25.5503 195.679 25.4764L202.085 22.5972C202.153 22.7285 202.221 22.8632 202.285 23.0001Z" fill="#FFD300"/>
<path d="M202.187 22.798L195.998 25.5789C195.788 25.516 195.579 25.4453 195.377 25.3669L201.978 22.3994C202.049 22.5297 202.12 22.6622 202.187 22.798Z" fill="#FFD300"/>
<path d="M202.085 22.597L195.679 25.4762C195.477 25.4066 195.282 25.3304 195.094 25.2454L201.866 22.2017C201.941 22.3309 202.013 22.4623 202.085 22.597Z" fill="#FFD200"/>
<path d="M201.978 22.3995L195.377 25.367C195.188 25.2931 195.004 25.2092 194.83 25.1198L201.751 22.0098C201.827 22.1357 201.903 22.2649 201.978 22.3995Z" fill="#FFD200"/>
<path d="M201.867 22.2028L195.094 25.2465C194.917 25.1659 194.748 25.0787 194.585 24.9826L201.631 21.8164C201.711 21.9412 201.789 22.0714 201.867 22.2028Z" fill="#FFD200"/>
<path d="M201.752 22.0081L194.831 25.1169C194.664 25.0319 194.506 24.9381 194.358 24.8365L201.507 21.625C201.588 21.7486 201.671 21.8768 201.752 22.0081Z" fill="#FFD200"/>
<path d="M201.631 21.8157L194.585 24.9819C194.431 24.8903 194.286 24.7921 194.151 24.6839L201.379 21.436C201.464 21.5596 201.548 21.6855 201.631 21.8157Z" fill="#FFD000"/>
<path d="M201.505 21.6254L194.358 24.8369C194.216 24.7398 194.082 24.6349 193.961 24.5223L201.244 21.249C201.333 21.3715 201.42 21.4962 201.505 21.6254Z" fill="#FFD000"/>
<path d="M201.379 21.4355L194.151 24.6835C194.021 24.5797 193.902 24.4704 193.793 24.3511L201.108 21.0635C201.198 21.1849 201.289 21.3086 201.379 21.4355Z" fill="#FFD000"/>
<path d="M201.244 21.2487L193.961 24.5221C193.844 24.4128 193.739 24.2969 193.644 24.1732L200.964 20.8833C201.058 21.0015 201.153 21.1229 201.244 21.2487Z" fill="#FFCE01"/>
<path d="M201.108 21.0657L193.793 24.3533C193.688 24.2386 193.595 24.116 193.515 23.9857L200.819 20.7036C200.916 20.8196 201.012 20.9399 201.108 21.0657Z" fill="#FFCE01"/>
<path d="M200.965 20.8825L193.644 24.1723C193.552 24.0508 193.472 23.9217 193.406 23.7848L200.668 20.5225C200.767 20.6384 200.866 20.7588 200.965 20.8825Z" fill="#FFCE01"/>
<path d="M200.82 20.7026L193.517 23.9848C193.438 23.8578 193.372 23.7231 193.321 23.5796L200.513 20.3472C200.615 20.4608 200.718 20.579 200.82 20.7026Z" fill="#FFCE01"/>
<path d="M200.669 20.524L193.407 23.7863C193.344 23.6527 193.292 23.5125 193.254 23.3624L200.353 20.1719C200.458 20.2845 200.563 20.4016 200.669 20.524Z" fill="#FDCA03"/>
<path d="M200.512 20.3471L193.32 23.5796C193.268 23.4394 193.232 23.2915 193.209 23.1369L200.189 20.0005C200.295 20.1098 200.404 20.2257 200.512 20.3471Z" fill="#F4C107"/>
<path d="M200.353 20.1723L193.255 23.3628C193.219 23.216 193.196 23.0625 193.188 22.8991L200.018 19.8301C200.129 19.9383 200.24 20.052 200.353 20.1723Z" fill="#EFBD09"/>
<path d="M200.187 20.0001L193.21 23.1365C193.194 23.025 193.185 22.9112 193.185 22.7909L193.26 22.6209L199.843 19.6611C199.957 19.7683 200.071 19.8797 200.187 20.0001Z" fill="#E8B60C"/>
<path d="M200.019 19.8293L193.188 22.8983C193.187 22.863 193.185 22.8277 193.185 22.7902L193.395 22.3121L199.663 19.4937C199.78 19.5997 199.898 19.7122 200.019 19.8293Z" fill="#E4B20D"/>
<path d="M199.843 19.6615L193.26 22.6213L193.531 22.0064L199.481 19.3325C199.598 19.4352 199.72 19.5446 199.843 19.6615Z" fill="#DEAB0E"/>
<path d="M199.665 19.4954L193.396 22.3139L193.666 21.699L199.292 19.1709C199.411 19.2714 199.536 19.3784 199.665 19.4954Z" fill="#D9A60E"/>
<path d="M199.481 19.3324L193.53 22.0062L193.801 21.3912L199.095 19.0122C199.218 19.1093 199.346 19.2165 199.481 19.3324Z" fill="#D3A10D"/>
<path d="M199.292 19.1713L193.667 21.6994L193.938 21.0845L198.896 18.8555C199.019 18.9493 199.152 19.0543 199.292 19.1713Z" fill="#CC9B0D"/>
<path d="M199.095 19.0122L193.801 21.3913L194.071 20.7763L198.686 18.7031C198.81 18.7925 198.947 18.8952 199.095 19.0122Z" fill="#C1910C"/>
<path d="M198.893 18.8571L193.935 21.086L194.206 20.4723L198.471 18.5557C198.591 18.6352 198.735 18.7367 198.893 18.8571Z" fill="#AF8009"/>
<path d="M198.687 18.7041L194.073 20.7774L194.342 20.1636L198.249 18.4082C198.357 18.4756 198.507 18.5739 198.687 18.7041Z" fill="#9E7104"/>
<path d="M198.472 18.5546L194.207 20.4712L194.469 19.8739L198.056 18.293C198.056 18.293 198.214 18.3802 198.472 18.5546Z" fill="#926600"/>
<path d="M198.251 18.4089L194.343 20.1643L194.47 19.8739L198.058 18.293C198.058 18.293 198.127 18.3317 198.251 18.4089Z" fill="#8A5E00"/>
<path d="M203.035 12.4596V11.1525L203.238 11.1172C203.196 11.5853 203.126 12.0313 203.035 12.4596Z" fill="#FFDE00"/>
<path d="M202.834 13.2534V11.1867L203.236 11.1172C203.167 11.8822 203.028 12.5932 202.834 13.2534Z" fill="#FFDE00"/>
<path d="M203.035 11.1523V12.4595C202.93 12.954 202.794 13.4232 202.632 13.8681V11.223L203.035 11.1523Z" fill="#FFDE00"/>
<path d="M202.835 11.186V13.2527C202.72 13.6446 202.586 14.0189 202.434 14.3776V11.2567L202.835 11.186Z" fill="#FFDE00"/>
<path d="M202.632 11.2217V13.8668C202.514 14.198 202.379 14.516 202.233 14.8207V11.2923L202.632 11.2217Z" fill="#FFDE00"/>
<path d="M202.433 11.2568V14.3778C202.31 14.6681 202.176 14.9485 202.031 15.2179V11.3275L202.433 11.2568Z" fill="#FFDD00"/>
<path d="M202.233 11.2925V14.8219C202.107 15.0825 201.973 15.3331 201.831 15.5749V11.362L202.233 11.2925Z" fill="#FFDD00"/>
<path d="M202.032 11.3262V15.2167C201.906 15.4529 201.771 15.6825 201.631 15.9022V11.3957L202.032 11.3262Z" fill="#FFDD00"/>
<path d="M201.832 11.3608V15.5737C201.703 15.7911 201.569 16.0031 201.43 16.2063V11.4315L201.832 11.3608Z" fill="#FFDA00"/>
<path d="M201.631 11.397V15.9034C201.502 16.1076 201.369 16.3019 201.229 16.4918V11.4665L201.631 11.397Z" fill="#FFDA00"/>
<path d="M201.429 11.4307V16.2054C201.299 16.3953 201.166 16.5785 201.028 16.7552V11.4991L201.429 11.4307Z" fill="#FFDA00"/>
<path d="M201.228 11.4658V16.4923C201.098 16.67 200.964 16.8411 200.826 17.0089V11.5365L201.228 11.4658Z" fill="#FFD900"/>
<path d="M201.027 11.501V16.7571C200.897 16.9248 200.762 17.0882 200.625 17.245V11.5694L201.027 11.501Z" fill="#FFD900"/>
<path d="M200.826 11.5361V17.0086C200.695 17.1687 200.561 17.321 200.425 17.47V11.6046L200.826 11.5361Z" fill="#FFD900"/>
<path d="M200.625 11.5713V17.2469C200.495 17.3981 200.361 17.545 200.226 17.6863V11.6397L200.625 11.5713Z" fill="#FFD700"/>
<path d="M200.425 11.6045V17.47C200.294 17.6145 200.16 17.7548 200.024 17.8895V11.6741L200.425 11.6045Z" fill="#FFD700"/>
<path d="M200.226 11.6392V17.6857C200.094 17.8236 199.959 17.9561 199.824 18.0853V11.7087L199.889 11.6977L200.226 11.6392Z" fill="#FFD700"/>
<path d="M200.024 11.6743V17.8897C199.892 18.0222 199.757 18.1492 199.622 18.2739V11.7339C199.727 11.7218 199.816 11.7107 199.888 11.6975L200.024 11.6743Z" fill="#FFD600"/>
<path d="M199.824 11.7085V18.0851C199.693 18.211 199.558 18.3346 199.423 18.4528V11.7549C199.581 11.7394 199.717 11.7239 199.824 11.7085Z" fill="#FFD600"/>
<path d="M199.621 11.7349V18.2726C199.489 18.3952 199.355 18.5133 199.22 18.6271V11.7757C199.37 11.7614 199.506 11.7481 199.621 11.7349Z" fill="#FFD600"/>
<path d="M199.422 11.7549V18.4527C199.288 18.5697 199.155 18.6835 199.02 18.7938V11.7946L199.422 11.7549Z" fill="#FFD300"/>
<path d="M199.221 11.7749V18.6262C199.086 18.7399 198.953 18.8481 198.818 18.954V11.8146L199.221 11.7749Z" fill="#FFD300"/>
<path d="M199.02 11.7949V18.7942C198.886 18.9035 198.753 19.0073 198.62 19.11V11.8369C198.759 11.8214 198.894 11.8082 199.02 11.7949Z" fill="#FFD300"/>
<path d="M198.818 11.8169V18.9542C198.685 19.0601 198.552 19.1617 198.418 19.2599V11.8577C198.557 11.8434 198.692 11.829 198.818 11.8169Z" fill="#FFD200"/>
<path d="M198.62 11.8364V19.1095C198.485 19.2122 198.351 19.3104 198.218 19.4064V11.8828C198.356 11.8651 198.489 11.8508 198.62 11.8364Z" fill="#FFD200"/>
<path d="M198.418 11.8599V19.261C198.283 19.3603 198.15 19.4553 198.017 19.5469V11.9084C198.154 11.8908 198.289 11.8742 198.418 11.8599Z" fill="#FFD200"/>
<path d="M198.217 11.8818V19.4055C198.082 19.5016 197.948 19.5932 197.816 19.6826V11.9337C197.953 11.9149 198.088 11.8984 198.217 11.8818Z" fill="#FFD200"/>
<path d="M198.017 11.9082V19.5466C197.882 19.6405 197.747 19.7299 197.614 19.8161V11.9645C197.752 11.9435 197.885 11.9248 198.017 11.9082Z" fill="#FFD000"/>
<path d="M197.815 11.9355V19.6844C197.68 19.775 197.546 19.8622 197.413 19.9461V11.9963C197.549 11.9731 197.684 11.9543 197.815 11.9355Z" fill="#FFD000"/>
<path d="M197.615 11.9634V19.8148C197.479 19.9032 197.345 19.9882 197.214 20.0688V12.0274C197.349 12.0042 197.482 11.9832 197.615 11.9634Z" fill="#FFCE01"/>
<path d="M197.413 11.9961V19.9458C197.278 20.0319 197.145 20.1136 197.012 20.1931V12.0657C197.146 12.0403 197.281 12.016 197.413 11.9961Z" fill="#FFCE01"/>
<path d="M197.214 12.0288V20.0703C197.078 20.1542 196.945 20.2336 196.812 20.3109V12.1039C196.946 12.0774 197.081 12.052 197.214 12.0288Z" fill="#FFCE01"/>
<path d="M197.012 12.0649V20.1913C196.876 20.273 196.742 20.3525 196.611 20.4265V12.1455C196.745 12.1168 196.88 12.0903 197.012 12.0649Z" fill="#FFCE01"/>
<path d="M196.812 12.1035V20.3105C196.674 20.391 196.541 20.4672 196.411 20.5401V12.1907C196.545 12.1598 196.678 12.1311 196.812 12.1035Z" fill="#FCC806"/>
<path d="M196.612 12.1455V20.4264C196.474 20.5048 196.34 20.5799 196.211 20.6506V12.2404C196.344 12.2062 196.478 12.1753 196.612 12.1455Z" fill="#F8C408"/>
<path d="M196.413 12.1904V20.5399C196.275 20.616 196.141 20.6899 196.011 20.7596V12.2942C196.143 12.2567 196.278 12.2235 196.413 12.1904Z" fill="#F3BD0C"/>
<path d="M196.21 12.2407V20.6508C196.07 20.7259 195.937 20.7977 195.807 20.865V12.3522C195.94 12.3136 196.073 12.2761 196.21 12.2407Z" fill="#EEB50F"/>
<path d="M196.009 12.2935V20.7588C195.869 20.8328 195.735 20.9045 195.607 20.9697V12.4149C195.739 12.3718 195.873 12.3321 196.009 12.2935Z" fill="#ECB110"/>
<path d="M195.807 12.3521V20.8659C195.667 20.9399 195.533 21.0095 195.406 21.0735V12.4845C195.538 12.4382 195.671 12.394 195.807 12.3521Z" fill="#E7AC11"/>
<path d="M195.608 12.4175V20.9723C195.466 21.0462 195.331 21.1147 195.206 21.1799V12.5632C195.337 12.5113 195.472 12.4628 195.608 12.4175Z" fill="#E2A612"/>
<path d="M195.406 12.4844V21.0733L195.024 21.2698L195.004 21.2798V12.6444C195.135 12.587 195.269 12.534 195.406 12.4844Z" fill="#DEA013"/>
<path d="M195.205 12.5605V21.1772L195.022 21.2699C194.947 21.3086 194.873 21.3483 194.804 21.3891V12.7361C194.934 12.6743 195.067 12.6157 195.205 12.5605Z" fill="#D99914"/>
<path d="M195.004 12.6445V21.2799C194.862 21.3539 194.728 21.4333 194.604 21.5151V12.841C194.731 12.7715 194.866 12.7042 195.004 12.6445Z" fill="#D79514"/>
<path d="M194.805 12.7393V21.3922C194.66 21.4772 194.527 21.5678 194.403 21.6583V12.9589C194.531 12.8795 194.666 12.8077 194.805 12.7393Z" fill="#D29014"/>
<path d="M194.606 12.8398V21.5138C194.458 21.612 194.324 21.7136 194.205 21.8151V13.0893C194.33 12.9999 194.465 12.9182 194.606 12.8398Z" fill="#CD8A14"/>
<path d="M194.401 12.957V21.6564C194.252 21.7691 194.119 21.8838 194 21.9987V13.2452C194.125 13.1414 194.26 13.0454 194.401 12.957Z" fill="#CB8614"/>
<path d="M194.203 13.0898V21.8168C194.049 21.946 193.915 22.0774 193.8 22.2044V13.4321C193.92 13.3073 194.055 13.1958 194.203 13.0898Z" fill="#C78014"/>
<path d="M194 13.2451V21.9987C193.841 22.1532 193.708 22.3034 193.599 22.4424V13.6657C193.714 13.5134 193.849 13.3732 194 13.2451Z" fill="#C27D13"/>
<path d="M193.8 13.4307V22.2029C193.627 22.395 193.495 22.575 193.4 22.7218V13.9926C193.498 13.7872 193.636 13.5996 193.8 13.4307Z" fill="#C07913"/>
<path d="M193.599 13.6655V22.441C193.316 22.8021 193.199 23.0791 193.199 23.0791V14.8656C193.201 14.3953 193.35 14 193.599 13.6655Z" fill="#BB7412"/>
<path d="M193.402 13.9927V22.7219C193.26 22.936 193.199 23.0795 193.199 23.0795V14.8659C193.201 14.5403 193.273 14.2521 193.402 13.9927Z" fill="#B26910"/>
<path d="M144.963 48.1627V47.7155H145.634L145.152 46.4018C145.09 46.2395 145.027 46.0408 144.963 45.8045V45.2481H145.168L146.8 49.5117H146.3L145.783 48.1627H144.963ZM153.086 49.5117H152.535L150.269 45.9492H150.246C150.275 46.3676 150.291 46.7507 150.291 47.0984V49.5117H149.847V45.2658H150.391L152.652 48.8151H152.674C152.671 48.7632 152.662 48.5954 152.651 48.3117C152.636 48.0269 152.633 47.8259 152.636 47.7023V45.2658H153.087V49.5117H153.086ZM157.352 47.3887L158.456 45.2658H158.977L157.595 47.8646V49.5106H157.106V47.8877L155.725 45.2647H156.253L157.352 47.3887ZM144.963 45.2481V45.8045L144.959 45.7891C144.917 45.9745 144.857 46.1799 144.78 46.4018L144.292 47.7155H144.963V48.1627H144.122L143.611 49.5117H143.122L144.762 45.2481H144.963ZM139.256 47.8248V47.3954C139.487 47.3645 139.667 47.3004 139.793 47.2066C139.984 47.0664 140.081 46.8401 140.081 46.5287C140.081 46.2483 139.991 46.0397 139.811 45.9017C139.679 45.8001 139.494 45.7372 139.256 45.7096V45.2747C140.137 45.3331 140.579 45.7428 140.579 46.5034C140.579 46.9328 140.436 47.2629 140.15 47.4937C139.927 47.6747 139.628 47.7851 139.256 47.8248ZM139.256 45.2747V45.7096C139.168 45.6997 139.073 45.6952 138.97 45.6952H138.431V47.4196H138.864C139.008 47.4196 139.137 47.4119 139.255 47.3965V47.8259C139.148 47.8381 139.037 47.8425 138.918 47.8425H138.43V49.514H137.948V45.268H139.022C139.104 45.2658 139.181 45.268 139.256 45.2747ZM125.847 49.5713V49.1374H125.85C126.311 49.1374 126.659 48.9895 126.894 48.6948C127.128 48.3967 127.245 47.9607 127.245 47.3844C127.245 46.8113 127.128 46.3797 126.894 46.0827C126.661 45.788 126.316 45.6412 125.857 45.6412H125.847V45.2007H125.857C126.454 45.2007 126.918 45.395 127.253 45.7813C127.589 46.1699 127.756 46.7032 127.756 47.3844C127.756 48.0633 127.588 48.5999 127.253 48.9873C126.916 49.3781 126.449 49.5702 125.85 49.5702H125.847V49.5713ZM132.296 49.5117L130.889 45.7482H130.865C130.892 46.0475 130.906 46.4018 130.906 46.8113V49.5117H130.461V45.2658H131.187L132.501 48.7687H132.524L133.849 45.2658H134.57V49.5117H134.088V46.7761C134.088 46.4625 134.101 46.1214 134.128 45.7538H134.106L132.685 49.5106H132.296V49.5117ZM125.847 45.2007V45.6412C125.392 45.6423 125.047 45.7913 124.808 46.0872C124.569 46.3842 124.45 46.8169 124.45 47.3844C124.45 47.9584 124.569 48.3945 124.808 48.6925C125.048 48.9895 125.394 49.1374 125.847 49.1374V49.5713C125.238 49.5713 124.768 49.3803 124.438 48.9984C124.105 48.6152 123.939 48.0754 123.939 47.3788C123.939 46.6878 124.105 46.1523 124.439 45.7725C124.771 45.3939 125.24 45.2028 125.847 45.2007ZM105.61 47.7464V47.317C105.87 47.2972 106.063 47.232 106.196 47.1139C106.355 46.977 106.435 46.7683 106.435 46.4924C106.435 46.2109 106.355 46.0088 106.192 45.8841C106.062 45.7847 105.868 45.725 105.61 45.7052V45.268C106.036 45.2879 106.355 45.3872 106.57 45.5639C106.812 45.7637 106.934 46.064 106.934 46.4625C106.934 47.0256 106.656 47.4053 106.1 47.6019L107.226 49.5095H106.656L105.652 47.7442H105.61V47.7464ZM112.25 48.3857C112.25 48.7588 112.117 49.0502 111.853 49.2589C111.588 49.4687 111.229 49.5713 110.775 49.5713C110.283 49.5713 109.905 49.5062 109.641 49.377V48.899C109.81 48.973 109.995 49.0315 110.196 49.0745C110.396 49.1165 110.595 49.1374 110.792 49.1374C111.114 49.1374 111.356 49.0756 111.519 48.9498C111.681 48.8262 111.764 48.6528 111.764 48.4298C111.764 48.283 111.735 48.1627 111.677 48.0689C111.619 47.975 111.521 47.8888 111.388 47.8083C111.252 47.7288 111.046 47.6405 110.77 47.5389C110.386 47.3976 110.109 47.2298 109.942 47.0377C109.778 46.8434 109.695 46.5906 109.695 46.2781C109.695 45.9503 109.814 45.6898 110.055 45.4976C110.296 45.3033 110.614 45.2062 111.008 45.2062C111.421 45.2062 111.799 45.2835 112.147 45.4381L111.996 45.8686C111.654 45.7196 111.32 45.6478 110.996 45.6478C110.742 45.6478 110.541 45.7041 110.398 45.8145C110.253 45.9293 110.182 46.0827 110.182 46.2848C110.182 46.4316 110.209 46.5519 110.26 46.6458C110.315 46.7396 110.404 46.8268 110.529 46.9041C110.655 46.9825 110.848 47.0675 111.107 47.1636C111.542 47.3225 111.841 47.4926 112.005 47.6747C112.168 47.8568 112.25 48.0942 112.25 48.3857ZM120.196 45.6478C119.741 45.6478 119.381 45.8023 119.115 46.1126C118.853 46.4239 118.72 46.8489 118.72 47.3887C118.72 47.9452 118.848 48.3746 119.102 48.676C119.357 48.9796 119.72 49.1309 120.191 49.1309C120.48 49.1309 120.811 49.0779 121.181 48.9719V49.4047C120.892 49.5172 120.538 49.5702 120.118 49.5702C119.507 49.5702 119.035 49.3815 118.704 49.0017C118.37 48.623 118.205 48.0831 118.205 47.3844C118.205 46.9461 118.285 46.563 118.446 46.2329C118.604 45.9039 118.836 45.6511 119.138 45.4734C119.439 45.2945 119.793 45.2062 120.202 45.2062C120.638 45.2062 121.017 45.2879 121.343 45.4502L121.139 45.8741C120.824 45.7218 120.511 45.6478 120.196 45.6478ZM105.61 45.2702V45.7074C105.548 45.7041 105.484 45.7008 105.414 45.7008H104.788V47.3236H105.448C105.505 47.3236 105.559 47.3225 105.61 47.3181V47.7475H104.788V49.5128H104.306V45.2669H105.443C105.5 45.2658 105.557 45.2669 105.61 45.2702ZM50.5962 48.1627V47.7155H51.2681L50.785 46.4018C50.7246 46.2395 50.661 46.0408 50.5973 45.8045V45.2481H50.8022L52.4338 49.5117H51.9345L51.418 48.1627H50.5962ZM58.4878 49.5117H57.9379L55.6711 45.9492H55.6485C55.6775 46.3676 55.6938 46.7507 55.6938 47.0984V49.5117H55.2484V45.2658H55.7918L58.0532 48.8151H58.0759C58.0715 48.7632 58.064 48.5954 58.05 48.3117C58.0371 48.0269 58.0317 47.8259 58.036 47.7023V45.2658H58.4868V49.5117H58.4878ZM65.1587 49.5151C64.9807 49.5151 64.8416 49.4885 64.7381 49.4367V49.015C64.8729 49.0547 65.012 49.0756 65.1587 49.0756C65.3452 49.0756 65.4886 49.0171 65.5857 48.9001C65.6828 48.7853 65.7313 48.6164 65.7313 48.3978V45.2669H66.2133V48.3558C66.2133 48.7234 66.1217 49.0105 65.9394 49.2114C65.7594 49.4135 65.4983 49.5151 65.1587 49.5151ZM71.9298 49.5117H69.6189V45.2658H71.9298V45.7063H70.1009V47.073H71.8198V47.508H70.1009V49.0712H71.9298V49.5117ZM78.5403 49.5117H78.0636L77.2268 46.6689C77.1869 46.5431 77.1427 46.3842 77.0931 46.1931C77.0434 45.9999 77.0187 45.8852 77.0165 45.8476C76.9744 46.1027 76.9087 46.3819 76.817 46.6867L76.006 49.5128H75.5305L74.4273 45.2669H74.9385L75.593 47.89C75.6836 48.2576 75.7505 48.591 75.7925 48.8879C75.8422 48.5347 75.9198 48.1881 76.019 47.8491L76.7631 45.2669H77.2731L78.0539 47.8723C78.1445 48.1715 78.2211 48.5104 78.2836 48.8879C78.3203 48.6142 78.3882 48.2785 78.4874 47.8834L79.1409 45.2669H79.651L78.5403 49.5117ZM84.9706 49.5117H82.6597V45.2658H84.9706V45.7063H83.1417V47.073H84.8605V47.508H83.1417V49.0712H84.9706V49.5117ZM87.9608 49.5117V45.2658H88.4427V49.0657H90.2706V49.5106H87.9608V49.5117ZM93.3949 49.5117V45.2658H93.8768V49.0657H95.7062V49.5106H93.3949V49.5117ZM101.199 49.5117H98.8869V45.2658H101.199V45.7063H99.3688V47.073H101.088V47.508H99.3688V49.0712H101.199V49.5117ZM50.5962 45.2481V45.8045L50.592 45.7891C50.5509 45.9745 50.4916 46.1799 50.4129 46.4018L49.9244 47.7155H50.5962V48.1627H49.7551L49.245 49.5117H48.7576L50.3978 45.2481H50.5962ZM33.5676 48.1627V47.7155H34.2394L33.7563 46.4018C33.6949 46.2395 33.6323 46.0408 33.5686 45.8045V45.2481H33.7736L35.4051 49.5117H34.9047L34.3883 48.1627H33.5676ZM38.2769 49.5117V45.2658H38.7589V49.0657H40.5879V49.5106H38.2769V49.5117ZM44.8841 47.3887L45.9894 45.2658H46.5113L45.1278 47.8646V49.5106H44.6393V47.8877L43.2579 45.2647H43.7863L44.8841 47.3887ZM19.8625 49.5117L19.3459 48.1627H18.5253V47.7155H19.196L18.714 46.4018C18.6525 46.2395 18.59 46.0408 18.5253 45.8045V45.2481H18.7302L20.3617 49.5117H19.8625ZM33.5676 45.2481V45.8045L33.5633 45.7891C33.5212 45.9745 33.4619 46.1799 33.3843 46.4018L32.8958 47.7155H33.5676V48.1627H32.7254L32.2143 49.5117H31.7268L33.367 45.2481H33.5676ZM29.6002 49.5117H29.033L27.52 47.4539L27.0855 47.848V49.5117H26.6024V45.2658H27.0844V47.3711L28.9662 45.2658H29.5377L27.8695 47.1106L29.6002 49.5117ZM18.5253 48.1627H17.683L17.173 49.5117H16.6855L18.3258 45.2481H18.5253V45.8045L18.521 45.7891C18.48 45.9745 18.4207 46.1799 18.3419 46.4018L17.8545 47.7155H18.5253V48.1627Z" fill="#231F20"/>
<path d="M41.2315 34.0807L38.6326 40.6682C38.5916 40.783 38.5193 40.8846 38.418 40.9729C38.3156 41.0623 38.1883 41.1053 38.0373 41.1053H36.8145L45.875 18.4351H47.4818L56.5444 41.1053H55.3075C55.1652 41.1053 55.0444 41.0667 54.9484 40.9894C54.8514 40.9099 54.7781 40.8051 54.7252 40.6682L52.7388 35.6627L52.1112 34.0807L51.6389 32.8773L47.1151 21.4225C47.0428 21.2458 46.9717 21.0394 46.9016 20.8032C46.8304 20.5691 46.7538 20.3218 46.6708 20.0613C46.6007 20.3218 46.5285 20.5668 46.4573 20.7954C46.3861 21.0261 46.316 21.2403 46.2449 21.4379L41.72 32.8763L41.2315 34.0807Z" fill="#282827"/>
<path d="M60.0298 41.1053V18.4351H60.8106C60.9529 18.4351 61.0672 18.455 61.1546 18.4892C61.2409 18.5267 61.3304 18.6051 61.4231 18.7309L75.758 38.3841C75.7278 38.0605 75.7127 37.7526 75.7127 37.46V18.4351H77.1038V41.1053H76.3392C76.0966 41.1053 75.9036 41.0005 75.7612 40.7929L61.3767 21.1089C61.4069 21.4324 61.4242 21.7349 61.4242 22.0153V41.1053H60.0298Z" fill="#282827"/>
<path d="M107.472 41.1053V18.4351H120.735V19.7941H109.06V28.9339H118.782V30.294H109.06V39.7431H120.735V41.1053H107.472Z" fill="#282827"/>
<path d="M133.085 29.5699C133.595 29.5113 134.071 29.413 134.514 29.2773C135.295 29.0377 135.951 28.6933 136.485 28.2429C137.019 27.7957 137.431 27.2548 137.716 26.6233C138.001 25.9918 138.144 25.2809 138.144 24.4893C138.144 22.8697 137.628 21.6741 136.594 20.897C135.743 20.2578 134.572 19.8813 133.085 19.7687V18.4616C135.155 18.5775 136.737 19.0754 137.832 19.952C139.099 20.9632 139.734 22.4448 139.734 24.3944C139.734 25.2588 139.587 26.0481 139.295 26.7602C139.005 27.4745 138.582 28.1004 138.029 28.6425C137.475 29.1813 136.813 29.6273 136.039 29.9684C135.268 30.3117 134.389 30.5358 133.405 30.6396C133.662 30.7964 133.889 31.0083 134.082 31.2799L141.732 41.1031H140.342C140.178 41.1031 140.037 41.0722 139.915 41.0093C139.794 40.9453 139.674 40.8371 139.565 40.6803L133.087 32.311V29.5699H133.085ZM128.027 29.6361H131.878C132.299 29.6361 132.701 29.6129 133.085 29.5687V32.3121L132.443 31.482C132.27 31.2435 132.081 31.0756 131.878 30.9818C131.675 30.888 131.359 30.8405 130.929 30.8405H128.027V41.1042H126.437V18.4351H132.09C132.433 18.4351 132.766 18.4451 133.085 18.4627V19.7698C132.763 19.7455 132.428 19.7334 132.076 19.7334H128.025V29.6361H128.027Z" fill="#282827"/>
<path d="M145.711 41.1053V18.4351H158.978V19.7941H147.303V28.9339H157.018V30.294H147.303V39.7431H158.978V41.1053H145.711Z" fill="#282827"/>
<path d="M101.535 25.0524C101.021 23.6547 100.302 22.4613 99.3762 21.4777C98.4512 20.4896 97.3402 19.74 96.0499 19.2167C94.7589 18.6934 93.326 18.4351 91.7482 18.4351H83.6914V23.0122H85.2809V19.7952H91.7383C93.0736 19.7952 94.2922 20.0193 95.3941 20.4664C96.4952 20.9135 97.434 21.5638 98.2095 22.416C98.985 23.2695 99.5844 24.3127 100.014 25.5436C100.442 26.7757 100.657 28.1832 100.657 29.7608C100.657 31.3528 100.442 32.7648 100.014 33.9957C99.5844 35.2266 98.9842 36.271 98.2095 37.1244C97.434 37.9755 96.496 38.6269 95.3941 39.074C94.2922 39.52 93.0736 39.7441 91.7383 39.7441H85.2809V36.5304H83.6914V41.1064H91.7482C93.326 41.1064 94.7589 40.8459 96.0499 40.3237C97.3402 39.8038 98.4512 39.0486 99.3762 38.0616C100.302 37.0769 101.022 35.8857 101.535 34.4892C102.05 33.0905 102.307 31.5162 102.307 29.7619C102.307 28.0198 102.049 26.4489 101.535 25.0524Z" fill="#282827"/>
<path fill-rule="evenodd" clip-rule="evenodd" d="M34.8557 38.0704C34.8815 38.098 34.6669 38.279 34.6292 38.3188C32.3905 40.6725 28.807 41.8074 24.8742 41.2521C20.0484 40.5731 16.7896 36.7975 15.7403 32.2403C15.1656 29.7409 15.254 26.9025 16.1124 24.4539C16.3798 23.6922 16.7303 22.9503 17.1606 22.2437L19.8932 23.5266C16.6257 28.7163 17.9403 37.0536 23.812 39.372C25.8652 40.1823 28.9127 40.1559 31.1407 39.1877C32.1338 38.756 33.1486 37.885 33.6694 37.4135C33.719 37.3683 34.0199 37.1508 34.2604 37.4169L34.8557 38.0704ZM23.3677 17.4182C27.4396 16.2623 31.4135 17.6622 34.0274 20.3636L34.6023 20.9575C34.6098 20.9653 34.5159 21.1166 34.1019 21.6674C34.0199 21.7767 33.8797 21.9104 33.6285 21.8374C33.443 21.7844 33.2219 21.6078 33.059 21.5085C32.5565 21.2016 32.1533 20.9642 31.7941 20.7732C30.9842 20.3427 30.3976 20.1439 29.4012 19.8757C27.6661 19.4098 25.6085 19.614 23.9316 20.2323L23.3677 17.4182Z" fill="#19B8CA"/>
<path d="M22.6781 22.668L20.5839 21.2395L18.3452 22.4119L19.7407 20.2691L18.5965 17.9761L20.6885 19.4057L22.9294 18.2322L21.5319 20.375L22.6781 22.668Z" fill="#19B8CA"/>
<path d="M21.8564 13.1206L19.7644 11.6899L17.5225 12.8645L18.92 10.7206L17.7737 8.42871L19.8668 9.85837L22.1066 8.68373L20.7101 10.8277L21.8564 13.1206Z" fill="#19B8CA"/>
<path d="M14.6186 19.4741L12.5276 18.0466L10.2856 19.2201L11.6821 17.0762L10.538 14.7832L12.629 16.2129L14.8698 15.0393L13.4733 17.1833L14.6186 19.4741Z" fill="#19B8CA"/>
<path d="M223.804 48.386C223.804 48.7271 223.684 48.9932 223.442 49.1841C223.2 49.3741 222.874 49.4701 222.46 49.4701C222.012 49.4701 221.667 49.4093 221.425 49.2923V48.8574C221.581 48.9236 221.749 48.9755 221.932 49.0153C222.115 49.055 222.297 49.0737 222.476 49.0737C222.769 49.0737 222.99 49.0164 223.138 48.9038C223.286 48.7911 223.36 48.6322 223.36 48.4302C223.36 48.2955 223.333 48.185 223.281 48.1001C223.228 48.0151 223.14 47.9355 223.017 47.8627C222.895 47.7909 222.706 47.707 222.455 47.6165C222.104 47.4873 221.851 47.3339 221.701 47.1584C221.552 46.9828 221.475 46.7521 221.475 46.4661C221.475 46.1681 221.585 45.9318 221.804 45.7541C222.024 45.5786 222.313 45.4902 222.673 45.4902C223.049 45.4902 223.395 45.5598 223.71 45.7011L223.572 46.0919C223.262 45.9583 222.958 45.8899 222.662 45.8899C222.429 45.8899 222.247 45.9418 222.117 46.0433C221.985 46.1471 221.919 46.2884 221.919 46.4717C221.919 46.6053 221.944 46.7156 221.992 46.8007C222.04 46.8868 222.121 46.9662 222.236 47.038C222.352 47.1087 222.528 47.1882 222.763 47.2743C223.159 47.42 223.431 47.5734 223.581 47.7401C223.729 47.9058 223.804 48.121 223.804 48.386Z" fill="#231F20"/>
<path d="M216.544 47.4145C216.779 47.3969 216.958 47.3351 217.078 47.2302C217.224 47.1043 217.295 46.9155 217.295 46.6627C217.295 46.4066 217.222 46.2222 217.074 46.1096C216.956 46.0191 216.779 45.9628 216.544 45.9473V45.5477C216.932 45.5676 217.222 45.657 217.419 45.8171C217.639 45.9992 217.751 46.273 217.751 46.6374C217.751 47.1496 217.499 47.4951 216.992 47.6751L218.018 49.4138H217.499L216.583 47.8042H216.545L216.544 47.4145ZM215.793 47.4201H216.394C216.448 47.4201 216.497 47.419 216.544 47.4145V47.8053H215.794V49.4149H215.355V45.5444H216.391C216.445 45.5444 216.495 45.5455 216.544 45.5477V45.9473C216.489 45.9418 216.429 45.9396 216.367 45.9396H215.795V47.4201H215.793Z" fill="#231F20"/>
<path d="M211.81 49.4136H209.704V45.543H211.81V45.9448H210.143V47.1923H211.709V47.5865H210.143V49.0128H211.81V49.4136Z" fill="#231F20"/>
<path d="M203.774 49.4136V45.543H204.214V49.0073H205.88V49.4136H203.774Z" fill="#231F20"/>
<path d="M197.845 49.4136V45.543H198.284V49.0073H199.951V49.4136H197.845Z" fill="#231F20"/>
<path d="M194.023 49.4136H191.914V45.543H194.023V45.9448H192.354V47.1923H193.921V47.5865H192.354V49.0128H194.023V49.4136Z" fill="#231F20"/>
<path d="M188.409 49.4136H187.975L187.212 46.8215C187.176 46.7067 187.137 46.5632 187.092 46.3876C187.046 46.2121 187.023 46.1061 187.022 46.0719C186.985 46.306 186.923 46.5598 186.84 46.8381L186.1 49.4125H185.666L184.66 45.542H185.127L185.724 47.9332C185.806 48.2677 185.867 48.5713 185.905 48.844C185.95 48.5205 186.02 48.2048 186.111 47.8956L186.788 45.542H187.255L187.965 47.9166C188.048 48.1893 188.119 48.4984 188.175 48.844C188.207 48.5922 188.269 48.2875 188.361 47.9276L188.957 45.542H189.422L188.409 49.4136Z" fill="#231F20"/>
<path d="M182.164 49.4136H180.058V45.543H182.164V45.9448H180.497V47.1923H182.062V47.5865H180.497V49.0128H182.164V49.4136Z" fill="#231F20"/>
<path d="M174.89 49.4577C174.728 49.4577 174.601 49.4345 174.509 49.3849V49.0018C174.631 49.0371 174.757 49.0559 174.89 49.0559C175.061 49.0559 175.191 49.0018 175.28 48.8958C175.368 48.7909 175.413 48.6385 175.413 48.4388V45.543H175.852V48.4001C175.852 48.7357 175.768 48.9962 175.603 49.1806C175.438 49.365 175.201 49.4577 174.89 49.4577Z" fill="#231F20"/>
</svg>
