<svg width="16" height="16" viewBox="0 0 16 16" fill="none" xmlns="http://www.w3.org/2000/svg">
<path fill-rule="evenodd" clip-rule="evenodd" d="M13.9262 14.3882C13.9387 14.4016 13.8345 14.4894 13.8162 14.5087C12.7296 15.6512 10.9901 16.2021 9.08115 15.9326C6.7387 15.603 5.15686 13.7703 4.64755 11.5582C4.36856 10.345 4.41148 8.96724 4.82814 7.77869C4.95796 7.40896 5.12808 7.04884 5.33693 6.70585L6.66337 7.32857C5.0773 9.84766 5.71539 13.8946 8.56556 15.02C9.56219 15.4133 11.0414 15.4005 12.1229 14.9305C12.605 14.721 13.0976 14.2982 13.3504 14.0693C13.3744 14.0474 13.5205 13.9418 13.6372 14.0709L13.9262 14.3882ZM8.3499 4.36354C10.3264 3.80247 12.2553 4.48198 13.5241 5.79325L13.8032 6.08153C13.8068 6.08531 13.7613 6.15875 13.5603 6.42611C13.5205 6.47917 13.4524 6.54407 13.3305 6.50863C13.2405 6.48291 13.1331 6.39718 13.0541 6.34898C12.8102 6.20001 12.6144 6.08478 12.4401 5.99207C12.047 5.7831 11.7622 5.6866 11.2786 5.55642C10.4363 5.33027 9.43758 5.42939 8.62361 5.72951L8.3499 4.36354Z" fill="#19B8CA"/>
<path d="M8.01531 6.91173L6.99878 6.21834L5.91211 6.78742L6.58949 5.7473L6.03409 4.63428L7.04955 5.32821L8.13729 4.75859L7.45894 5.79871L8.01531 6.91173Z" fill="#19B8CA"/>
<path d="M7.61642 2.27747L6.60096 1.58298L5.5127 2.15315L6.19108 1.11248L5.63466 0L6.65066 0.69396L7.73786 0.123787L7.06 1.16446L7.61642 2.27747Z" fill="#19B8CA"/>
<path d="M4.10321 5.36143L3.08825 4.66852L2 5.23814L2.67786 4.19748L2.12249 3.08447L3.13745 3.77844L4.22517 3.20877L3.54731 4.24947L4.10321 5.36143Z" fill="#19B8CA"/>
</svg>
